999
"DXF R12 Output" (www.mydxf.blogspot.com)
 0 
SECTION
 2 
HEADER
 9 
$ACADVER
 1 
AC1009
 9 
$EXTMIN
 10 
 0 
 20 
 0 
 9 
$EXTMAX
 10 
 8.5 
 20 
 11 
 0 
ENDSEC
 0 
SECTION
 2 
ENTITIES
0
LINE
8
Layer 1
10
119.291000
20
105.879000
11
118.145272
21
108.802506
0
LINE
8
Layer 1
10
118.145272
20
108.802506
11
117.450693
21
111.796392
0
LINE
8
Layer 1
10
117.450693
20
111.796392
11
117.194461
21
114.816608
0
LINE
8
Layer 1
10
117.194461
20
114.816608
11
117.363780
21
117.819100
0
LINE
8
Layer 1
10
117.363780
20
117.819100
11
116.446913
21
118.614612
0
LINE
8
Layer 1
10
116.446913
20
118.614612
11
113.051083
21
117.857553
0
LINE
8
Layer 1
10
113.051083
20
117.857553
11
112.936083
21
114.169538
0
LINE
8
Layer 1
10
112.936083
20
114.169538
11
113.356632
21
110.468331
0
LINE
8
Layer 1
10
113.356632
20
110.468331
11
114.328374
21
106.811909
0
LINE
8
Layer 1
10
114.328374
20
106.811909
11
115.866953
21
103.258253
0
LINE
8
Layer 1
10
115.866953
20
103.258253
11
119.109323
21
105.478633
0
LINE
8
Layer 1
10
119.109323
20
105.478633
11
119.291003
21
105.879035
0
LINE
8
Layer 1
10
123.413000
20
130.213000
11
125.473481
21
132.040298
0
LINE
8
Layer 1
10
125.473481
20
132.040298
11
127.807540
21
133.616240
0
LINE
8
Layer 1
10
127.807540
20
133.616240
11
129.573454
21
134.530485
0
LINE
8
Layer 1
10
129.573454
20
134.530485
11
131.383537
21
135.264292
0
LINE
8
Layer 1
10
131.383537
20
135.264292
11
133.226783
21
135.820713
0
LINE
8
Layer 1
10
133.226783
20
135.820713
11
135.092189
21
136.202800
0
LINE
8
Layer 1
10
135.092189
20
136.202800
11
136.968748
21
136.413602
0
LINE
8
Layer 1
10
136.968748
20
136.413602
11
138.845456
21
136.456171
0
LINE
8
Layer 1
10
138.845456
20
136.456171
11
140.711309
21
136.333557
0
LINE
8
Layer 1
10
140.711309
20
136.333557
11
142.555300
21
136.048812
0
LINE
8
Layer 1
10
142.555300
20
136.048812
11
144.366425
21
135.604987
0
LINE
8
Layer 1
10
144.366425
20
135.604987
11
146.133680
21
135.005133
0
LINE
8
Layer 1
10
146.133680
20
135.005133
11
147.846058
21
134.252300
0
LINE
8
Layer 1
10
147.846058
20
134.252300
11
149.492556
21
133.349539
0
LINE
8
Layer 1
10
149.492556
20
133.349539
11
151.062168
21
132.299902
0
LINE
8
Layer 1
10
151.062168
20
132.299902
11
152.543890
21
131.106439
0
LINE
8
Layer 1
10
152.543890
20
131.106439
11
153.926715
21
129.772201
0
LINE
8
Layer 1
10
153.926715
20
129.772201
11
155.199640
21
128.300240
0
LINE
8
Layer 1
10
155.199640
20
128.300240
11
159.266100
21
130.164670
0
LINE
8
Layer 1
10
159.266100
20
130.164670
11
157.759533
21
132.061614
0
LINE
8
Layer 1
10
157.759533
20
132.061614
11
156.106329
21
133.784394
0
LINE
8
Layer 1
10
156.106329
20
133.784394
11
154.320980
21
135.329090
0
LINE
8
Layer 1
10
154.320980
20
135.329090
11
152.417981
21
136.691781
0
LINE
8
Layer 1
10
152.417981
20
136.691781
11
150.411825
21
137.868547
0
LINE
8
Layer 1
10
150.411825
20
137.868547
11
148.317006
21
138.855467
0
LINE
8
Layer 1
10
148.317006
20
138.855467
11
146.148018
21
139.648619
0
LINE
8
Layer 1
10
146.148018
20
139.648619
11
143.919355
21
140.244085
0
LINE
8
Layer 1
10
143.919355
20
140.244085
11
141.645511
21
140.637943
0
LINE
8
Layer 1
10
141.645511
20
140.637943
11
139.340979
21
140.826272
0
LINE
8
Layer 1
10
139.340979
20
140.826272
11
137.020253
21
140.805151
0
LINE
8
Layer 1
10
137.020253
20
140.805151
11
134.697827
21
140.570661
0
LINE
8
Layer 1
10
134.697827
20
140.570661
11
132.388195
21
140.118881
0
LINE
8
Layer 1
10
132.388195
20
140.118881
11
130.105851
21
139.445889
0
LINE
8
Layer 1
10
130.105851
20
139.445889
11
127.865288
21
138.547766
0
LINE
8
Layer 1
10
127.865288
20
138.547766
11
125.681000
21
137.420590
0
LINE
8
Layer 1
10
125.681000
20
137.420590
11
123.634942
21
136.105123
0
LINE
8
Layer 1
10
123.634942
20
136.105123
11
121.756665
21
134.628758
0
LINE
8
Layer 1
10
121.756665
20
134.628758
11
120.048713
21
133.006408
0
LINE
8
Layer 1
10
120.048713
20
133.006408
11
118.513630
21
131.252990
0
LINE
8
Layer 1
10
118.513630
20
131.252990
11
123.413000
21
130.213000
0
LINE
8
Layer 1
10
158.660000
20
122.018000
11
159.198359
21
120.220797
0
LINE
8
Layer 1
10
159.198359
20
120.220797
11
159.573912
21
118.403426
0
LINE
8
Layer 1
10
159.573912
20
118.403426
11
159.789306
21
116.575987
0
LINE
8
Layer 1
10
159.789306
20
116.575987
11
159.847190
21
114.748582
0
LINE
8
Layer 1
10
159.847190
20
114.748582
11
159.750212
21
112.931311
0
LINE
8
Layer 1
10
159.750212
20
112.931311
11
159.501021
21
111.134277
0
LINE
8
Layer 1
10
159.501021
20
111.134277
11
159.102266
21
109.367580
0
LINE
8
Layer 1
10
159.102266
20
109.367580
11
158.556594
21
107.641323
0
LINE
8
Layer 1
10
158.556594
20
107.641323
11
157.866654
21
105.965604
0
LINE
8
Layer 1
10
157.866654
20
105.965604
11
157.035094
21
104.350528
0
LINE
8
Layer 1
10
157.035094
20
104.350528
11
156.064564
21
102.806193
0
LINE
8
Layer 1
10
156.064564
20
102.806193
11
154.957711
21
101.342702
0
LINE
8
Layer 1
10
154.957711
20
101.342702
11
153.717183
21
99.970156
0
LINE
8
Layer 1
10
153.717183
20
99.970156
11
152.345630
21
98.698656
0
LINE
8
Layer 1
10
152.345630
20
98.698656
11
150.845700
21
97.538304
0
LINE
8
Layer 1
10
150.845700
20
97.538304
11
149.220040
21
96.499200
0
LINE
8
Layer 1
10
149.220040
20
96.499200
11
147.075246
21
95.423849
0
LINE
8
Layer 1
10
147.075246
20
95.423849
11
144.868540
21
94.611490
0
LINE
8
Layer 1
10
144.868540
20
94.611490
11
143.327610
21
89.872640
0
LINE
8
Layer 1
10
143.327610
20
89.872640
11
145.391713
21
90.348035
0
LINE
8
Layer 1
10
145.391713
20
90.348035
11
147.430450
21
91.001130
0
LINE
8
Layer 1
10
147.430450
20
91.001130
11
149.433269
21
91.835928
0
LINE
8
Layer 1
10
149.433269
20
91.835928
11
151.389620
21
92.856430
0
LINE
8
Layer 1
10
151.389620
20
92.856430
11
153.402988
21
94.147537
0
LINE
8
Layer 1
10
153.402988
20
94.147537
11
155.255437
21
95.593529
0
LINE
8
Layer 1
10
155.255437
20
95.593529
11
156.943431
21
97.181039
0
LINE
8
Layer 1
10
156.943431
20
97.181039
11
158.463436
21
98.896702
0
LINE
8
Layer 1
10
158.463436
20
98.896702
11
159.811917
21
100.727153
0
LINE
8
Layer 1
10
159.811917
20
100.727153
11
160.985339
21
102.659026
0
LINE
8
Layer 1
10
160.985339
20
102.659026
11
161.980168
21
104.678955
0
LINE
8
Layer 1
10
161.980168
20
104.678955
11
162.792870
21
106.773575
0
LINE
8
Layer 1
10
162.792870
20
106.773575
11
163.419909
21
108.929520
0
LINE
8
Layer 1
10
163.419909
20
108.929520
11
163.857751
21
111.133425
0
LINE
8
Layer 1
10
163.857751
20
111.133425
11
164.102861
21
113.371923
0
LINE
8
Layer 1
10
164.102861
20
113.371923
11
164.151704
21
115.631650
0
LINE
8
Layer 1
10
164.151704
20
115.631650
11
164.000747
21
117.899240
0
LINE
8
Layer 1
10
164.000747
20
117.899240
11
163.646453
21
120.161327
0
LINE
8
Layer 1
10
163.646453
20
120.161327
11
163.085289
21
122.404545
0
LINE
8
Layer 1
10
163.085289
20
122.404545
11
162.313720
21
124.615530
0
LINE
8
Layer 1
10
162.313720
20
124.615530
11
158.660010
21
122.018030
0
LINE
8
Layer 1
10
131.019000
20
93.355000
11
130.663048
21
95.200730
0
LINE
8
Layer 1
10
130.663048
20
95.200730
11
128.086072
21
96.437541
0
LINE
8
Layer 1
10
128.086072
20
96.437541
11
125.681174
21
98.019201
0
LINE
8
Layer 1
10
125.681174
20
98.019201
11
123.486421
21
99.935491
0
LINE
8
Layer 1
10
123.486421
20
99.935491
11
121.539878
21
102.176190
0
LINE
8
Layer 1
10
121.539878
20
102.176190
11
120.983196
21
102.230870
0
LINE
8
Layer 1
10
120.983196
20
102.230870
11
117.499876
21
100.559060
0
LINE
8
Layer 1
10
117.499876
20
100.559060
11
119.923177
21
97.551538
0
LINE
8
Layer 1
10
119.923177
20
97.551538
11
122.705982
21
94.992152
0
LINE
8
Layer 1
10
122.705982
20
94.992152
11
125.789884
21
92.896709
0
LINE
8
Layer 1
10
125.789884
20
92.896709
11
129.116476
21
91.281020
0
LINE
8
Layer 1
10
129.116476
20
91.281020
11
131.019006
21
93.355000
0
LINE
8
Layer 1
10
125.840000
20
81.341200
11
126.086591
21
87.979400
0
LINE
8
Layer 1
10
126.086591
20
87.979400
11
131.018411
21
93.355020
0
LINE
8
Layer 1
10
131.018411
20
93.355020
11
128.909511
21
104.285120
0
LINE
8
Layer 1
10
128.909511
20
104.285120
11
124.541071
21
101.881300
0
LINE
8
Layer 1
10
124.541071
20
101.881300
11
120.982611
21
102.230902
0
LINE
8
Layer 1
10
120.982611
20
102.230902
11
107.461711
21
95.741212
0
LINE
8
Layer 1
10
107.461711
20
95.741212
11
107.137156
21
96.155372
0
LINE
8
Layer 1
10
107.137156
20
96.155372
11
107.111403
21
96.140555
0
LINE
8
Layer 1
10
107.111403
20
96.140555
11
106.903265
21
96.501446
0
LINE
8
Layer 1
10
106.903265
20
96.501446
11
106.929018
21
96.516263
0
LINE
8
Layer 1
10
106.929018
20
96.516263
11
106.733227
21
97.004506
0
LINE
8
Layer 1
10
106.733227
20
97.004506
11
119.109027
21
105.478566
0
LINE
8
Layer 1
10
119.109027
20
105.478566
11
120.586107
21
108.737516
0
LINE
8
Layer 1
10
120.586107
20
108.737516
11
124.850127
21
111.321606
0
LINE
8
Layer 1
10
124.850127
20
111.321606
11
116.446627
21
118.614566
0
LINE
8
Layer 1
10
116.446627
20
118.614566
11
109.328997
21
117.028126
0
LINE
8
Layer 1
10
109.328997
20
117.028126
11
103.461257
21
120.132916
0
LINE
8
Layer 1
10
103.461257
20
120.132916
11
114.271357
21
132.152716
0
LINE
8
Layer 1
10
114.271357
20
132.152716
11
139.545757
21
126.789446
0
LINE
8
Layer 1
10
139.545757
20
126.789446
11
139.110430
21
126.297322
0
LINE
8
Layer 1
10
139.110430
20
126.297322
11
139.748956
21
124.982172
0
LINE
8
Layer 1
10
139.748956
20
124.982172
11
146.492286
21
124.308015
0
LINE
8
Layer 1
10
146.492286
20
124.308015
11
165.644886
21
133.088985
0
LINE
8
Layer 1
10
165.644886
20
133.088985
11
174.674566
21
136.141215
0
LINE
8
Layer 1
10
174.674566
20
136.141215
11
176.988786
21
137.117702
0
LINE
8
Layer 1
10
176.988786
20
137.117702
11
177.085800
21
137.053497
0
LINE
8
Layer 1
10
177.085800
20
137.053497
11
177.130602
21
137.079602
0
LINE
8
Layer 1
10
177.130602
20
137.079602
11
177.338740
21
136.718358
0
LINE
8
Layer 1
10
177.338740
20
136.718358
11
177.293938
21
136.692605
0
LINE
8
Layer 1
10
177.293938
20
136.692605
11
177.300993
21
136.576189
0
LINE
8
Layer 1
10
177.300993
20
136.576189
11
175.298983
21
135.058899
0
LINE
8
Layer 1
10
175.298983
20
135.058899
11
168.142903
21
128.758659
0
LINE
8
Layer 1
10
168.142903
20
128.758659
11
150.968003
21
116.549759
0
LINE
8
Layer 1
10
150.968003
20
116.549759
11
148.180003
21
110.367699
0
LINE
8
Layer 1
10
148.180003
20
110.367699
11
148.998446
21
109.156969
0
LINE
8
Layer 1
10
148.998446
20
109.156969
11
149.641911
21
109.288202
0
LINE
8
Layer 1
10
149.641911
20
109.288202
11
141.645871
21
84.700702
0
LINE
8
Layer 1
10
141.645871
20
84.700702
11
125.840071
21
81.341202
0
LINE
8
Layer 1
10
114.395000
20
76.357200
11
114.395000
21
64.181400
0
LINE
8
Layer 1
10
114.395000
20
64.181400
11
122.866000
21
64.181400
0
LINE
8
Layer 1
10
122.866000
20
64.181400
11
124.889880
21
66.601450
0
LINE
8
Layer 1
10
124.889880
20
66.601450
11
117.123000
21
66.601500
0
LINE
8
Layer 1
10
117.123000
20
66.601500
11
117.123000
21
69.160900
0
LINE
8
Layer 1
10
117.123000
20
69.160900
11
122.218000
21
69.160900
0
LINE
8
Layer 1
10
122.218000
20
69.160900
11
122.218000
21
71.580600
0
LINE
8
Layer 1
10
122.218000
20
71.580600
11
117.123000
21
71.580600
0
LINE
8
Layer 1
10
117.123000
20
71.580600
11
117.123000
21
73.936800
0
LINE
8
Layer 1
10
117.123000
20
73.936800
11
124.890000
21
73.936800
0
LINE
8
Layer 1
10
124.890000
20
73.936800
11
122.866120
21
76.357200
0
LINE
8
Layer 1
10
122.866120
20
76.357200
11
114.395000
21
76.357200
0
LINE
8
Layer 1
10
134.108000
20
76.358600
11
131.129860
21
72.073420
0
LINE
8
Layer 1
10
131.129860
20
72.073420
11
128.076580
21
76.356130
0
LINE
8
Layer 1
10
128.076580
20
76.356130
11
124.706000
21
76.356100
0
LINE
8
Layer 1
10
124.706000
20
76.356100
11
129.358420
21
70.294330
0
LINE
8
Layer 1
10
129.358420
20
70.294330
11
124.716230
21
64.181060
0
LINE
8
Layer 1
10
124.716230
20
64.181060
11
128.085000
21
64.181100
0
LINE
8
Layer 1
10
128.085000
20
64.181100
11
131.082550
21
68.465930
0
LINE
8
Layer 1
10
131.082550
20
68.465930
11
134.115370
21
64.181810
0
LINE
8
Layer 1
10
134.115370
20
64.181810
11
137.502000
21
64.181800
0
LINE
8
Layer 1
10
137.502000
20
64.181800
11
133.228110
21
70.235450
0
LINE
8
Layer 1
10
133.228110
20
70.235450
11
137.481190
21
76.358250
0
LINE
8
Layer 1
10
137.481190
20
76.358250
11
134.107940
21
76.358603
0
LINE
8
Layer 1
10
145.976000
20
67.770200
11
145.889333
21
67.238323
0
LINE
8
Layer 1
10
145.889333
20
67.238323
11
145.643816
21
66.844161
0
LINE
8
Layer 1
10
145.643816
20
66.844161
11
145.261179
21
66.599223
0
LINE
8
Layer 1
10
145.261179
20
66.599223
11
144.763150
21
66.515020
0
LINE
8
Layer 1
10
144.763150
20
66.515020
11
141.379000
21
66.515000
0
LINE
8
Layer 1
10
141.379000
20
66.515000
11
140.881177
21
66.599204
0
LINE
8
Layer 1
10
140.881177
20
66.599204
11
140.498647
21
66.844141
0
LINE
8
Layer 1
10
140.498647
20
66.844141
11
140.253171
21
67.238303
0
LINE
8
Layer 1
10
140.253171
20
67.238303
11
140.166510
21
67.770180
0
LINE
8
Layer 1
10
140.166510
20
67.770180
11
140.167000
21
72.768000
0
LINE
8
Layer 1
10
140.167000
20
72.768000
11
140.253662
21
73.299877
0
LINE
8
Layer 1
10
140.253662
20
73.299877
11
140.499139
21
73.694039
0
LINE
8
Layer 1
10
140.499139
20
73.694039
11
140.881669
21
73.938977
0
LINE
8
Layer 1
10
140.881669
20
73.938977
11
141.379490
21
74.023180
0
LINE
8
Layer 1
10
141.379490
20
74.023180
11
144.763000
21
74.023200
0
LINE
8
Layer 1
10
144.763000
20
74.023200
11
145.261028
21
73.938997
0
LINE
8
Layer 1
10
145.261028
20
73.938997
11
145.643665
21
73.694059
0
LINE
8
Layer 1
10
145.643665
20
73.694059
11
145.889182
21
73.299897
0
LINE
8
Layer 1
10
145.889182
20
73.299897
11
145.975850
21
72.768020
0
LINE
8
Layer 1
10
145.975850
20
72.768020
11
145.976000
21
67.770200
0
LINE
8
Layer 1
10
141.379670
20
76.443930
11
139.804228
21
76.163748
0
LINE
8
Layer 1
10
139.804228
20
76.163748
11
138.556438
21
75.390449
0
LINE
8
Layer 1
10
138.556438
20
75.390449
11
137.735221
21
74.224905
0
LINE
8
Layer 1
10
137.735221
20
74.224905
11
137.515491
21
73.526565
0
LINE
8
Layer 1
10
137.515491
20
73.526565
11
137.439500
21
72.767990
0
LINE
8
Layer 1
10
137.439500
20
72.767990
11
137.439000
21
67.770200
0
LINE
8
Layer 1
10
137.439000
20
67.770200
11
137.514991
21
67.011625
0
LINE
8
Layer 1
10
137.514991
20
67.011625
11
137.734721
21
66.313285
0
LINE
8
Layer 1
10
137.734721
20
66.313285
11
138.555937
21
65.147741
0
LINE
8
Layer 1
10
138.555937
20
65.147741
11
139.803727
21
64.374442
0
LINE
8
Layer 1
10
139.803727
20
64.374442
11
141.379170
21
64.094260
0
LINE
8
Layer 1
10
141.379170
20
64.094260
11
144.763000
21
64.094300
0
LINE
8
Layer 1
10
144.763000
20
64.094300
11
146.338645
21
64.374482
0
LINE
8
Layer 1
10
146.338645
20
64.374482
11
147.586539
21
65.147781
0
LINE
8
Layer 1
10
147.586539
20
65.147781
11
148.407793
21
66.313325
0
LINE
8
Layer 1
10
148.407793
20
66.313325
11
148.627528
21
67.011665
0
LINE
8
Layer 1
10
148.627528
20
67.011665
11
148.703520
21
67.770240
0
LINE
8
Layer 1
10
148.703520
20
67.770240
11
148.703000
21
72.768000
0
LINE
8
Layer 1
10
148.703000
20
72.768000
11
148.627008
21
73.526575
0
LINE
8
Layer 1
10
148.627008
20
73.526575
11
148.407273
21
74.224915
0
LINE
8
Layer 1
10
148.407273
20
74.224915
11
147.586019
21
75.390459
0
LINE
8
Layer 1
10
147.586019
20
75.390459
11
146.338125
21
76.163758
0
LINE
8
Layer 1
10
146.338125
20
76.163758
11
144.762480
21
76.443940
0
LINE
8
Layer 1
10
144.762480
20
76.443940
11
141.379000
21
76.444000
0
LINE
8
Layer 1
10
153.086000
20
76.441800
11
151.766354
21
76.207132
0
LINE
8
Layer 1
10
151.766354
20
76.207132
11
150.720849
21
75.560344
0
LINE
8
Layer 1
10
150.720849
20
75.560344
11
150.032597
21
74.587259
0
LINE
8
Layer 1
10
150.032597
20
74.587259
11
149.784710
21
73.373700
0
LINE
8
Layer 1
10
149.784710
20
73.373700
11
149.912432
21
72.564440
0
LINE
8
Layer 1
10
149.912432
20
72.564440
11
150.268852
21
71.864255
0
LINE
8
Layer 1
10
150.268852
20
71.864255
11
150.813854
21
71.280882
0
LINE
8
Layer 1
10
150.813854
20
71.280882
11
151.507320
21
70.822060
0
LINE
8
Layer 1
10
151.507320
20
70.822060
11
156.709020
21
68.077810
0
LINE
8
Layer 1
10
156.709020
20
68.077810
11
156.959844
21
67.673175
0
LINE
8
Layer 1
10
156.959844
20
67.673175
11
156.960000
21
67.037200
0
LINE
8
Layer 1
10
156.960000
20
67.037200
11
156.708427
21
66.679616
0
LINE
8
Layer 1
10
156.708427
20
66.679616
11
155.944360
21
66.515443
0
LINE
8
Layer 1
10
155.944360
20
66.515443
11
149.785000
21
66.515400
0
LINE
8
Layer 1
10
149.785000
20
66.515400
11
149.785000
21
64.094300
0
LINE
8
Layer 1
10
149.785000
20
64.094300
11
155.944000
21
64.094300
0
LINE
8
Layer 1
10
155.944000
20
64.094300
11
157.381325
21
64.303943
0
LINE
8
Layer 1
10
157.381325
20
64.303943
11
158.573246
21
64.898588
0
LINE
8
Layer 1
10
158.573246
20
64.898588
11
159.386285
21
65.826806
0
LINE
8
Layer 1
10
159.386285
20
65.826806
11
159.609010
21
66.399934
0
LINE
8
Layer 1
10
159.609010
20
66.399934
11
159.686960
21
67.037170
0
LINE
8
Layer 1
10
159.686960
20
67.037170
11
159.687000
21
67.945900
0
LINE
8
Layer 1
10
159.687000
20
67.945900
11
159.448838
21
69.006380
0
LINE
8
Layer 1
10
159.448838
20
69.006380
11
158.889240
21
69.704316
0
LINE
8
Layer 1
10
158.889240
20
69.704316
11
157.735080
21
70.376890
0
LINE
8
Layer 1
10
157.735080
20
70.376890
11
152.819840
21
72.944050
0
LINE
8
Layer 1
10
152.819840
20
72.944050
11
152.591549
21
73.162860
0
LINE
8
Layer 1
10
152.591549
20
73.162860
11
152.517510
21
73.449932
0
LINE
8
Layer 1
10
152.517510
20
73.449932
11
152.532679
21
73.585398
0
LINE
8
Layer 1
10
152.532679
20
73.585398
11
152.713786
21
73.891212
0
LINE
8
Layer 1
10
152.713786
20
73.891212
11
153.086186
21
74.021078
0
LINE
8
Layer 1
10
153.086186
20
74.021078
11
159.311000
21
74.021100
0
LINE
8
Layer 1
10
159.311000
20
74.021100
11
159.311000
21
76.441800
0
LINE
8
Layer 1
10
159.311000
20
76.441800
11
153.086000
21
76.441800
0
LINE
8
Layer 1
10
129.866000
20
64.161300
11
132.402000
21
64.161300
0
LINE
8
Layer 1
10
132.402000
20
64.161300
11
131.133770
21
66.263500
0
LINE
8
Layer 1
10
131.133770
20
66.263500
11
129.866000
21
64.161300
0
LINE
8
Layer 1
10
164.726000
20
76.021000
11
164.716000
21
76.021000
0
LINE
8
Layer 1
10
164.716000
20
76.021000
11
163.991043
21
74.033100
0
LINE
8
Layer 1
10
163.991043
20
74.033100
11
163.709000
21
74.033100
0
LINE
8
Layer 1
10
163.709000
20
74.033100
11
162.989335
21
76.021000
0
LINE
8
Layer 1
10
162.989335
20
76.021000
11
162.978000
21
76.021000
0
LINE
8
Layer 1
10
162.978000
20
76.021000
11
162.978000
21
74.033100
0
LINE
8
Layer 1
10
162.978000
20
74.033100
11
162.553000
21
74.033100
0
LINE
8
Layer 1
10
162.553000
20
74.033100
11
162.553000
21
76.483100
0
LINE
8
Layer 1
10
162.553000
20
76.483100
11
163.222000
21
76.483100
0
LINE
8
Layer 1
10
163.222000
20
76.483100
11
163.851001
21
74.671940
0
LINE
8
Layer 1
10
163.851001
20
74.671940
11
164.482472
21
76.483100
0
LINE
8
Layer 1
10
164.482472
20
76.483100
11
165.152000
21
76.483100
0
LINE
8
Layer 1
10
165.152000
20
76.483100
11
165.152000
21
74.033100
0
LINE
8
Layer 1
10
165.152000
20
74.033100
11
164.726000
21
74.033100
0
LINE
8
Layer 1
10
164.726000
20
74.033100
11
164.726000
21
76.021000
0
LINE
8
Layer 1
10
161.037010
20
76.059100
11
160.359000
21
76.059100
0
LINE
8
Layer 1
10
160.359000
20
76.059100
11
160.359000
21
76.483100
0
LINE
8
Layer 1
10
160.359000
20
76.483100
11
162.147000
21
76.483100
0
LINE
8
Layer 1
10
162.147000
20
76.483100
11
162.147000
21
76.059100
0
LINE
8
Layer 1
10
162.147000
20
76.059100
11
161.463000
21
76.059100
0
LINE
8
Layer 1
10
161.463000
20
76.059100
11
161.463000
21
74.033100
0
LINE
8
Layer 1
10
161.463000
20
74.033100
11
161.037000
21
74.033100
0
LINE
8
Layer 1
10
161.037000
20
74.033100
11
161.037000
21
76.059100
0
LINE
8
Layer 1
10
164.838000
20
76.054100
11
164.827000
21
76.054100
0
LINE
8
Layer 1
10
164.827000
20
76.054100
11
164.101338
21
74.064080
0
LINE
8
Layer 1
10
164.101338
20
74.064080
11
163.819000
21
74.064100
0
LINE
8
Layer 1
10
163.819000
20
74.064100
11
163.098629
21
76.054120
0
LINE
8
Layer 1
10
163.098629
20
76.054120
11
163.088000
21
76.054100
0
LINE
8
Layer 1
10
163.088000
20
76.054100
11
163.088000
21
74.064100
0
LINE
8
Layer 1
10
163.088000
20
74.064100
11
162.662000
21
74.064100
0
LINE
8
Layer 1
10
162.662000
20
74.064100
11
162.662000
21
76.516600
0
LINE
8
Layer 1
10
162.662000
20
76.516600
11
163.332000
21
76.516600
0
LINE
8
Layer 1
10
163.332000
20
76.516600
11
163.962060
21
74.703680
0
LINE
8
Layer 1
10
163.962060
20
74.703680
11
164.594236
21
76.516600
0
LINE
8
Layer 1
10
164.594236
20
76.516600
11
165.264000
21
76.516600
0
LINE
8
Layer 1
10
165.264000
20
76.516600
11
165.264000
21
74.064100
0
LINE
8
Layer 1
10
165.264000
20
74.064100
11
164.838000
21
74.064100
0
LINE
8
Layer 1
10
164.838000
20
74.064100
11
164.838000
21
76.054100
0
LINE
8
Layer 1
10
161.145480
20
76.092200
11
160.466000
21
76.092200
0
LINE
8
Layer 1
10
160.466000
20
76.092200
11
160.466000
21
76.516600
0
LINE
8
Layer 1
10
160.466000
20
76.516600
11
162.256000
21
76.516600
0
LINE
8
Layer 1
10
162.256000
20
76.516600
11
162.256000
21
76.092200
0
LINE
8
Layer 1
10
162.256000
20
76.092200
11
161.571000
21
76.092200
0
LINE
8
Layer 1
10
161.571000
20
76.092200
11
161.571000
21
74.064100
0
LINE
8
Layer 1
10
161.571000
20
74.064100
11
161.145000
21
74.064100
0
LINE
8
Layer 1
10
161.145000
20
74.064100
11
161.145000
21
76.092200
 0 
ENDSEC
 0 
EOF