<?xml version="1.0" encoding="UTF-8" standalone="no"?>
<!-- Created with Inkscape (http://www.inkscape.org/) -->

<svg
   xmlns:dc="http://purl.org/dc/elements/1.1/"
   xmlns:cc="http://creativecommons.org/ns#"
   xmlns:rdf="http://www.w3.org/1999/02/22-rdf-syntax-ns#"
   xmlns:svg="http://www.w3.org/2000/svg"
   xmlns="http://www.w3.org/2000/svg"
   version="1.1"
   width="220"
   height="97.920273"
   id="svg3158"
   style="font-size:12px;font-style:normal;font-weight:normal;fill:#000000;fill-opacity:1;stroke:#000000;stroke-width:1;stroke-linecap:square;stroke-linejoin:miter;stroke-miterlimit:10;stroke-opacity:1;stroke-dasharray:none;stroke-dashoffset:0;font-family:Dialog">
  <metadata
     id="metadata3310">
    <rdf:RDF>
      <cc:Work
         rdf:about="">
        <dc:format>image/svg+xml</dc:format>
        <dc:type
           rdf:resource="http://purl.org/dc/dcmitype/StillImage" />
        <dc:title></dc:title>
      </cc:Work>
    </rdf:RDF>
  </metadata>
  <defs
     id="genericDefs">
    <defs
       id="defs1">
      <clipPath
         id="clipPath1">
        <path
           d="m 0,0 17.9659,0 0,36.1059 L 0,36.1059 0,0 z"
           id="path3165" />
      </clipPath>
      <clipPath
         id="clipPath2">
        <path
           d="m 0,0 17.9659,0 0,36.106 L 0,36.106 0,0 z"
           id="path3168" />
      </clipPath>
    </defs>
  </defs>
  <g
     transform="translate(-152.75,-112.625)"
     id="g4239">
    <path
       d="m 186.74779,123.48607 -7.324,0 0,71.8043 7.324,0"
       id="path3202"
       style="font-size:24px;fill:none;stroke-width:1.70000005;stroke-linecap:butt;stroke-miterlimit:10;stroke-dasharray:none;font-family:Arial" />
    <path
       d="m 338.38339,123.48607 7.324,0 0,71.8043 -7.324,0"
       id="path3204"
       style="font-size:24px;fill:none;stroke-width:1.70000005;stroke-linecap:butt;stroke-miterlimit:10;stroke-dasharray:none;font-family:Arial" />
    <g
       transform="translate(346.92819,168.54527)"
       clip-path="url(#clipPath1)"
       id="text3208"
       style="font-size:22px;font-style:italic;stroke:none;font-family:Arial">
      <path
         d="m 0.73046875,32 2.38476565,-11.408203 1.7617187,0 -0.4189453,1.987305 c 0.7662708,-0.780589 1.4824159,-1.349925 2.1484375,-1.708008 0.6660084,-0.358062 1.3463462,-0.537098 2.0410156,-0.53711 0.9238186,1.2e-5 1.6471251,0.250663 2.1699221,0.751953 0.529936,0.501313 0.79491,1.170909 0.794922,2.00879 -1.2e-5,0.422534 -0.09311,1.088549 -0.279297,1.998046 L 9.8828125,32 7.9384766,32 9.453125,24.770508 C 9.603506,24.068693 9.6787013,23.549488 9.6787109,23.212891 9.6787013,22.833342 9.5462144,22.5254 9.28125,22.289062 9.0234285,22.052744 8.6474523,21.93458 8.1533203,21.93457 7.1578704,21.93458 6.2698505,22.292653 5.4892578,23.008789 4.7158156,23.724943 4.1464802,24.953132 3.78125,26.693359 L 2.6748047,32 0.73046875,32"
         id="path3469"
         style="font-size:22px;font-style:italic;stroke:none;font-family:Arial" />
    </g>
    <path
       d="m 332.951,143.13777 29.78522,0"
       id="line3284"
       style="font-size:24px;fill:none;stroke-width:1.70000005;stroke-linecap:butt;font-family:Arial" />
    <path
       d="m 162.73619,143.13777 30.42969,0"
       id="line3286"
       style="font-size:24px;fill:none;stroke-width:1.70000005;stroke-linecap:butt;font-family:Arial" />
    <path
       d="m 211.46769,143.13777 21.05359,0"
       id="line3288"
       style="font-size:24px;fill:none;stroke-width:1.70000005;stroke-linecap:butt;font-family:Arial" />
    <path
       d="m 252.951,143.13777 20.19141,0"
       id="line3290"
       style="font-size:24px;fill:none;stroke-width:1.70000005;stroke-linecap:butt;font-family:Arial" />
    <path
       d="m 292.01631,143.13777 20.505,0"
       id="line3292"
       style="font-size:24px;fill:none;stroke-width:1.70000005;stroke-linecap:butt;font-family:Arial" />
    <path
       d="m 279.73622,153.87407 0,18.2285"
       id="line3294"
       style="font-size:24px;fill:none;stroke-width:1.70000005;stroke-linecap:butt;font-family:Arial" />
    <path
       d="m 285.73622,153.87407 0,18.2285"
       id="line3296"
       style="font-size:24px;fill:none;stroke-width:1.70000005;stroke-linecap:butt;font-family:Arial" />
    <g
       transform="translate(-194.49541,28.440367)"
       id="text3298"
       style="font-size:24px;stroke:none;font-family:Arial">
      <path
         d="m 389.66122,122.99429 0,-17.17968 7.61719,0 c 1.53124,1e-5 2.6953,0.15626 3.49219,0.46875 0.79686,0.3047 1.43358,0.84767 1.91016,1.6289 0.47654,0.78127 0.71482,1.64455 0.71484,2.58985 -2e-5,1.21876 -0.39455,2.2461 -1.18359,3.08203 -0.78908,0.83594 -2.00783,1.36719 -3.65625,1.59375 0.60155,0.28907 1.05858,0.57422 1.37109,0.85547 0.66405,0.60938 1.29295,1.3711 1.88672,2.28515 l 2.98828,4.67578 -2.85938,0 -2.27343,-3.57422 c -0.66408,-1.03124 -1.21095,-1.8203 -1.64063,-2.36718 -0.4297,-0.54687 -0.81641,-0.92968 -1.16015,-1.14844 -0.33595,-0.21874 -0.6797,-0.37109 -1.03125,-0.45703 -0.25782,-0.0547 -0.6797,-0.082 -1.26563,-0.082 l -2.63672,0 0,7.6289 -2.27344,0 m 2.27344,-9.59765 4.88672,0 c 1.03905,1e-5 1.85155,-0.10546 2.4375,-0.31641 0.58593,-0.21874 1.03124,-0.56249 1.33594,-1.03125 0.30467,-0.47655 0.45702,-0.99217 0.45703,-1.54687 -10e-6,-0.81249 -0.29689,-1.48046 -0.89063,-2.00391 -0.58594,-0.52342 -1.51563,-0.78514 -2.78906,-0.78516 l -5.4375,0 0,5.6836"
         id="path3459"
         style="font-size:24px;stroke:none;font-family:Arial" />
    </g>
    <g
       transform="translate(-194.49541,28.440367)"
       id="text3300"
       style="font-size:24px;stroke:none;font-family:Arial">
      <path
         d="m 429.01675,114.77942 c 0,-2.85155 0.76563,-5.08202 2.29688,-6.69141 1.53124,-1.61717 3.5078,-2.42576 5.92969,-2.42578 1.58592,2e-5 3.01561,0.37892 4.28906,1.13672 1.27342,0.75783 2.24217,1.81642 2.90625,3.17578 0.67186,1.35158 1.00779,2.88673 1.00781,4.60547 -2e-5,1.74219 -0.35158,3.30079 -1.05469,4.67578 -0.70314,1.375 -1.69923,2.41797 -2.98828,3.12891 -1.28907,0.70312 -2.6797,1.05468 -4.17187,1.05469 -1.6172,-1e-5 -3.06251,-0.39063 -4.33594,-1.17188 -1.27344,-0.78125 -2.23828,-1.84765 -2.89453,-3.19922 -0.65625,-1.35156 -0.98438,-2.78124 -0.98438,-4.28906 m 2.34375,0.0352 c 0,2.07031 0.55469,3.70312 1.66407,4.89843 1.11718,1.1875 2.51561,1.78125 4.19531,1.78125 1.71093,0 3.11717,-0.60156 4.21875,-1.80468 1.10936,-1.20313 1.66405,-2.91015 1.66406,-5.1211 -10e-6,-1.39843 -0.23829,-2.61717 -0.71484,-3.65625 -0.46877,-1.04686 -1.16017,-1.85545 -2.07422,-2.42578 -0.90626,-0.57811 -1.92579,-0.86717 -3.05859,-0.86719 -1.60939,2e-5 -2.9961,0.55471 -4.16016,1.66407 -1.15625,1.10157 -1.73438,2.94532 -1.73438,5.53125"
         id="path3456"
         style="font-size:24px;stroke:none;font-family:Arial" />
    </g>
    <g
       transform="translate(-194.49541,28.440367)"
       id="text3302"
       style="font-size:24px;stroke:none;font-family:Arial">
      <path
         d="m 482.55188,117.11736 2.27344,0.57421 c -0.47658,1.8672 -1.33596,3.29298 -2.57813,4.27735 -1.23439,0.97656 -2.7461,1.46484 -4.53515,1.46484 -1.85157,0 -3.35938,-0.375 -4.52344,-1.125 -1.15625,-0.75781 -2.03907,-1.85156 -2.64844,-3.28125 -0.60156,-1.42968 -0.90234,-2.96484 -0.90234,-4.60547 0,-1.78905 0.33984,-3.34764 1.01953,-4.67578 0.6875,-1.33592 1.66015,-2.34764 2.91797,-3.03515 1.26562,-0.6953 2.65624,-1.04296 4.17187,-1.04297 1.71874,1e-5 3.16405,0.43751 4.33594,1.3125 1.17186,0.87501 1.98827,2.10548 2.44922,3.6914 l -2.23828,0.52735 c -0.39845,-1.24999 -0.97658,-2.16015 -1.73438,-2.73047 -0.75782,-0.5703 -1.71095,-0.85546 -2.85937,-0.85547 -1.32032,1e-5 -2.42579,0.31642 -3.31641,0.94922 -0.88282,0.63282 -1.50391,1.48439 -1.86328,2.55469 -0.35938,1.06251 -0.53907,2.16016 -0.53906,3.29296 -10e-6,1.46095 0.21093,2.73829 0.63281,3.83204 0.42968,1.08594 1.09374,1.89844 1.99219,2.4375 0.89843,0.53906 1.87108,0.80859 2.91797,0.80859 1.27342,0 2.35155,-0.36719 3.23437,-1.10156 0.8828,-0.73437 1.48046,-1.82422 1.79297,-3.26953"
         id="path3453"
         style="font-size:24px;stroke:none;font-family:Arial" />
    </g>
    <g
       transform="translate(-194.49541,28.440367)"
       id="text3304"
       style="font-size:24px;stroke:none;font-family:Arial">
      <path
         d="m 509.01678,114.77942 c 0,-2.85155 0.76563,-5.08202 2.29688,-6.69141 1.53124,-1.61717 3.50781,-2.42576 5.92969,-2.42578 1.58592,2e-5 3.01561,0.37892 4.28906,1.13672 1.27342,0.75783 2.24217,1.81642 2.90625,3.17578 0.67186,1.35158 1.00779,2.88673 1.00781,4.60547 -2e-5,1.74219 -0.35158,3.30079 -1.05469,4.67578 -0.70314,1.375 -1.69923,2.41797 -2.98828,3.12891 -1.28907,0.70312 -2.67969,1.05468 -4.17187,1.05469 -1.6172,-1e-5 -3.06251,-0.39063 -4.33594,-1.17188 -1.27344,-0.78125 -2.23828,-1.84765 -2.89453,-3.19922 -0.65625,-1.35156 -0.98438,-2.78124 -0.98438,-4.28906 m 2.34375,0.0352 c 0,2.07031 0.55469,3.70312 1.66407,4.89843 1.11718,1.1875 2.51561,1.78125 4.19531,1.78125 1.71093,0 3.11717,-0.60156 4.21875,-1.80468 1.10936,-1.20313 1.66405,-2.91015 1.66406,-5.1211 -10e-6,-1.39843 -0.23829,-2.61717 -0.71484,-3.65625 -0.46877,-1.04686 -1.16017,-1.85545 -2.07422,-2.42578 -0.90626,-0.57811 -1.92579,-0.86717 -3.05859,-0.86719 -1.60939,2e-5 -2.9961,0.55471 -4.16016,1.66407 -1.15625,1.10157 -1.73438,2.94532 -1.73438,5.53125"
         id="path3450"
         style="font-size:24px;stroke:none;font-family:Arial" />
    </g>
    <g
       transform="translate(-194.49541,28.440367)"
       id="text3306"
       style="font-size:24px;stroke:none;font-family:Arial">
      <path
         d="m 469.01678,154.77942 c 0,-2.85155 0.76563,-5.08202 2.29688,-6.69141 1.53124,-1.61717 3.50781,-2.42576 5.92969,-2.42578 1.58592,2e-5 3.01561,0.37892 4.28906,1.13672 1.27342,0.75783 2.24217,1.81642 2.90625,3.17578 0.67186,1.35158 1.00779,2.88673 1.00781,4.60547 -2e-5,1.74219 -0.35158,3.30079 -1.05469,4.67578 -0.70314,1.375 -1.69923,2.41797 -2.98828,3.12891 -1.28907,0.70312 -2.67969,1.05468 -4.17187,1.05469 -1.6172,-1e-5 -3.06251,-0.39063 -4.33594,-1.17188 -1.27344,-0.78125 -2.23828,-1.84765 -2.89453,-3.19922 -0.65625,-1.35156 -0.98438,-2.78124 -0.98438,-4.28906 m 2.34375,0.0352 c 0,2.07031 0.55469,3.70312 1.66407,4.89843 1.11718,1.1875 2.51561,1.78125 4.19531,1.78125 1.71093,0 3.11717,-0.60156 4.21875,-1.80468 1.10936,-1.20313 1.66405,-2.91015 1.66406,-5.1211 -10e-6,-1.39843 -0.23829,-2.61717 -0.71484,-3.65625 -0.46877,-1.04686 -1.16017,-1.85545 -2.07422,-2.42578 -0.90626,-0.57811 -1.92579,-0.86717 -3.05859,-0.86719 -1.60939,2e-5 -2.9961,0.55471 -4.16016,1.66407 -1.15625,1.10157 -1.73438,2.94532 -1.73438,5.53125"
         id="path3447"
         style="font-size:24px;stroke:none;font-family:Arial" />
    </g>
  </g>
</svg>
