<?xml version="1.0" encoding="UTF-8" standalone="no"?>
<svg
   color-interpolation="auto"
   color-rendering="auto"
   fill="black"
   fill-opacity="1"
   font-family="'Dialog'"
   font-size="12px"
   font-style="normal"
   font-weight="normal"
   height="318"
   image-rendering="auto"
   shape-rendering="auto"
   stroke="black"
   stroke-dasharray="none"
   stroke-dashoffset="0"
   stroke-linecap="square"
   stroke-linejoin="miter"
   stroke-miterlimit="10"
   stroke-opacity="1"
   stroke-width="1"
   text-rendering="auto"
   width="705"
   version="1.1"
   id="svg32"
   xmlns="http://www.w3.org/2000/svg"
   xmlns:svg="http://www.w3.org/2000/svg">
  <!--Generated by Marvin with Batik SVG Generator-->
  <defs
     id="genericDefs">
    <clipPath
       clipPathUnits="userSpaceOnUse"
       id="13085494739-clipPath1">
      <path
         d="M 0,0 H 1520 V 655 H 0 Z"
         id="path11-2" />
    </clipPath>
    <clipPath
       clipPathUnits="userSpaceOnUse"
       id="clipPath1">
      <path
         d="M 0,0 H 1520 V 655 H 0 Z"
         id="path1-2" />
    </clipPath>
    <clipPath
       clipPathUnits="userSpaceOnUse"
       id="clipPath2">
      <path
         d="M 0,0 H 1520 V 655 H 0 Z"
         id="path2-7" />
    </clipPath>
    <clipPath
       clipPathUnits="userSpaceOnUse"
       id="clipPath3">
      <path
         d="M 0,0 H 1520 V 655 H 0 Z"
         id="path3-3" />
    </clipPath>
    <clipPath
       clipPathUnits="userSpaceOnUse"
       id="clipPath4">
      <path
         d="M 0,0 H 1520 V 655 H 0 Z"
         id="path4-7" />
    </clipPath>
    <clipPath
       clipPathUnits="userSpaceOnUse"
       id="clipPath5">
      <path
         d="M 0,0 H 1520 V 655 H 0 Z"
         id="path5-9" />
    </clipPath>
    <defs
       id="684083926253-defs1">
      <clipPath
         clipPathUnits="userSpaceOnUse"
         id="684083926625-clipPath1">
        <path
           d="M0 0 L705 0 L705 318 L0 318 L0 0 Z"
           id="path1" />
      </clipPath>
      <clipPath
         clipPathUnits="userSpaceOnUse"
         id="684083926474-clipPath1">
        <path
           d="M-86.9156 -187.1588 L618.0845 -187.1588 L618.0845 130.8412 L-86.9156 130.8412 L-86.9156 -187.1588 Z"
           id="path2" />
      </clipPath>
      <clipPath
         clipPathUnits="userSpaceOnUse"
         id="684083926504-clipPath1">
        <path
           d="M-86.9148 -64.9107 L618.0852 -64.9107 L618.0852 253.0893 L-86.9148 253.0893 L-86.9148 -64.9107 Z"
           id="path3" />
      </clipPath>
      <clipPath
         clipPathUnits="userSpaceOnUse"
         id="684083926993-clipPath1">
        <path
           d="M-7.7457 -187.1592 L697.2543 -187.1592 L697.2543 130.8408 L-7.7457 130.8408 L-7.7457 -187.1592 Z"
           id="path4" />
      </clipPath>
      <clipPath
         clipPathUnits="userSpaceOnUse"
         id="68408392660-clipPath1">
        <path
           d="M-439.8145 -64.9111 L265.1855 -64.9111 L265.1855 253.0889 L-439.8145 253.0889 L-439.8145 -64.9111 Z"
           id="path5" />
      </clipPath>
      <clipPath
         clipPathUnits="userSpaceOnUse"
         id="684083926899-clipPath1">
        <path
           d="M-439.8153 -187.1592 L265.1847 -187.1592 L265.1847 130.8408 L-439.8153 130.8408 L-439.8153 -187.1592 Z"
           id="path6" />
      </clipPath>
      <clipPath
         clipPathUnits="userSpaceOnUse"
         id="684083926172-clipPath1">
        <path
           d="M-623.6844 -3.786 L81.3156 -3.786 L81.3156 314.214 L-623.6844 314.214 L-623.6844 -3.786 Z"
           id="path7" />
      </clipPath>
      <clipPath
         clipPathUnits="userSpaceOnUse"
         id="684083926898-clipPath1">
        <path
           d="M583.6915 242.7556 L590.2202 242.7556 L590.2202 256.4253 L583.6915 256.4253 L583.6915 242.7556 Z"
           id="path8" />
      </clipPath>
    </defs>
  </defs>
  <g
     text-rendering="geometricPrecision"
     id="g9">
    <path
       clip-path="url(#684083926625-clipPath1)"
       d="m 248.1326,94.1522 v 0 l -35.2892,61.1245 c -0.4102,0.7104 -1.3186,0.9538 -2.029,0.5436 -0.7104,-0.4101 -0.9538,-1.3185 -0.5436,-2.0289 v 0 L 245.56,92.667 c 0.4101,-0.7104 1.3185,-0.9538 2.0289,-0.5437 0.7104,0.4101 0.9538,1.3185 0.5437,2.0289 z"
       stroke="none"
       id="path9" />
  </g>
  <g
     text-rendering="geometricPrecision"
     id="g10">
    <path
       clip-path="url(#684083926625-clipPath1)"
       d="m 228.4039,155.0776 c -0.4102,-0.7104 -1.3186,-0.9538 -2.0289,-0.5436 -0.7104,0.4101 -0.9538,1.3185 -0.5437,2.0289 l 26.3966,45.7203 c 0.4102,0.7104 1.3185,0.9538 2.0289,0.5436 0.7104,-0.4101 0.9538,-1.3185 0.5437,-2.0289 z m -15.5606,-1.2862 c -0.4101,-0.7104 -1.3185,-0.9538 -2.0289,-0.5436 -0.7104,0.4101 -0.9538,1.3185 -0.5436,2.0289 l 35.2907,61.1254 c 0.4102,0.7104 1.3186,0.9538 2.0289,0.5436 0.7104,-0.4101 0.9538,-1.3185 0.5437,-2.0289 z"
       stroke="none"
       id="path10" />
  </g>
  <g
     text-rendering="geometricPrecision"
     id="g11">
    <path
       clip-path="url(#684083926625-clipPath1)"
       d="m 246.8478,214.1742 v 0 l 70.58,9e-4 c 0.8203,0 1.4852,0.665 1.4852,1.4852 0,0.8203 -0.665,1.4853 -1.4853,1.4853 v 0 l -70.5799,-9e-4 c -0.8203,0 -1.4853,-0.665 -1.4853,-1.4853 0,-0.8203 0.665,-1.4853 1.4853,-1.4852 z"
       stroke="none"
       id="path11" />
  </g>
  <g
     text-rendering="geometricPrecision"
     id="g12">
    <path
       clip-path="url(#684083926625-clipPath1)"
       d="m 309.4751,200.7986 c -0.4102,0.7104 -0.1668,1.6188 0.5436,2.0289 0.7104,0.4102 1.6188,0.1667 2.0289,-0.5437 l 26.3951,-45.719 c 0.4102,-0.7104 0.1668,-1.6187 -0.5436,-2.0289 -0.7104,-0.4101 -1.6188,-0.1667 -2.029,0.5437 z m 6.6664,14.1191 c -0.4102,0.7104 -0.1668,1.6188 0.5437,2.0289 0.7103,0.4102 1.6187,0.1667 2.0289,-0.5437 l 35.2891,-61.1244 c 0.4102,-0.7104 0.1668,-1.6188 -0.5436,-2.0289 -0.7104,-0.4102 -1.6188,-0.1668 -2.0289,0.5436 z"
       stroke="none"
       id="path12" />
  </g>
  <g
     text-rendering="geometricPrecision"
     id="g13">
    <path
       clip-path="url(#684083926625-clipPath1)"
       d="m 351.4307,155.2785 v 0 L 316.1399,94.1531 c -0.4101,-0.7104 -0.1667,-1.6188 0.5437,-2.0289 0.7104,-0.4101 1.6187,-0.1667 2.0289,0.5436 v 0 l 35.2907,61.1254 c 0.4102,0.7104 0.1668,1.6188 -0.5436,2.0289 -0.7104,0.4102 -1.6188,0.1668 -2.0289,-0.5436 z"
       stroke="none"
       id="path13" />
  </g>
  <g
     text-rendering="geometricPrecision"
     id="g14">
    <path
       clip-path="url(#684083926625-clipPath1)"
       d="m 246.8463,91.9243 c -0.8203,0 -1.4853,0.665 -1.4853,1.4853 0,0.8203 0.665,1.4852 1.4852,1.4852 l 70.58,9e-4 c 0.8203,10e-5 1.4853,-0.6649 1.4853,-1.4852 0,-0.8203 -0.665,-1.4853 -1.4853,-1.4853 z m 8.8943,12.8328 c -0.8203,0 -1.4853,0.665 -1.4853,1.4853 0,0.8203 0.6649,1.4853 1.4852,1.4853 l 52.7914,6e-4 c 0.8203,10e-5 1.4853,-0.6649 1.4853,-1.4852 0,-0.8203 -0.665,-1.4853 -1.4853,-1.4853 z"
       stroke="none"
       id="path14" />
  </g>
  <g
     text-rendering="geometricPrecision"
     id="g15">
    <path
       clip-path="url(#684083926625-clipPath1)"
       d="m 352.7169,153.0506 v 0 l 70.58,-5e-4 c 0.8203,0 1.4853,0.665 1.4853,1.4853 0,0.8203 -0.665,1.4853 -1.4853,1.4853 v 0 l -70.5799,4e-4 c -0.8203,0 -1.4853,-0.6649 -1.4853,-1.4852 0,-0.8203 0.665,-1.4853 1.4852,-1.4853 z"
       stroke="none"
       id="path15" />
  </g>
  <g
     text-rendering="geometricPrecision"
     id="g16">
    <path
       clip-path="url(#684083926625-clipPath1)"
       d="m 211.5571,156.0193 v 0 l -70.58,5e-4 c -0.8203,0 -1.4852,-0.665 -1.4853,-1.4853 0,-0.8203 0.665,-1.4853 1.4853,-1.4853 v 0 l 70.58,-4e-4 c 0.8202,0 1.4852,0.665 1.4852,1.4852 0,0.8203 -0.6649,1.4853 -1.4852,1.4853 z"
       stroke="none"
       id="path16" />
  </g>
  <g
     text-rendering="geometricPrecision"
     id="g17">
    <path
       clip-path="url(#684083926625-clipPath1)"
       d="m 142.2634,155.2771 v 0 l -20.5764,35.64 c -0.4102,0.7104 -1.3186,0.9538 -2.029,0.5437 -0.7104,-0.4102 -0.9538,-1.3186 -0.5436,-2.0289 v 0 l 20.5764,-35.64 c 0.4102,-0.7104 1.3185,-0.9538 2.0289,-0.5437 0.7104,0.4102 0.9538,1.3185 0.5437,2.0289 z"
       stroke="none"
       id="path17" />
  </g>
  <g
     text-rendering="geometricPrecision"
     id="g18">
    <path
       clip-path="url(#684083926625-clipPath1)"
       d="m 135.9864,161.6935 c 0.4101,0.7104 1.3185,0.9538 2.0289,0.5437 0.7104,-0.4102 0.9538,-1.3186 0.5436,-2.0289 l -22.2323,-38.5071 c -0.4102,-0.7104 -1.3186,-0.9538 -2.029,-0.5436 -0.7104,0.4101 -0.9537,1.3185 -0.5436,2.0289 z m 11.1134,-6.4164 c 0.4102,0.7104 1.3185,0.9538 2.0289,0.5436 0.7104,-0.4101 0.9538,-1.3185 0.5437,-2.0289 L 127.44,115.2848 c -0.4102,-0.7104 -1.3185,-0.9538 -2.0289,-0.5437 -0.7104,0.4102 -0.9538,1.3186 -0.5437,2.029 z"
       stroke="none"
       id="path18" />
  </g>
  <g
     text-rendering="geometricPrecision"
     id="g19">
    <path
       clip-path="url(#684083926625-clipPath1)"
       d="m 82.9745,217.1441 v 0 l -38.273,3e-4 c -0.8203,0 -1.4853,-0.665 -1.4853,-1.4853 0,-0.8203 0.665,-1.4853 1.4853,-1.4853 v 0 l 38.273,-2e-4 c 0.8203,0 1.4852,0.665 1.4852,1.4853 0,0.8203 -0.6649,1.4852 -1.4852,1.4852 z"
       stroke="none"
       id="path19" />
  </g>
  <g
     text-rendering="geometricPrecision"
     id="g20">
    <path
       clip-path="url(#684083926625-clipPath1)"
       d="m 422.0106,153.7928 v 0 l 20.3279,-35.2094 c 0.4101,-0.7104 1.3185,-0.9538 2.0289,-0.5437 0.7104,0.4101 0.9538,1.3185 0.5437,2.0289 v 0 l -20.3279,35.2094 c -0.4101,0.7104 -1.3185,0.9538 -2.0289,0.5437 -0.7104,-0.4102 -0.9538,-1.3185 -0.5437,-2.0289 z"
       stroke="none"
       id="path20" />
  </g>
  <g
     text-rendering="geometricPrecision"
     id="g21">
    <path
       clip-path="url(#684083926625-clipPath1)"
       d="m 428.2876,147.3764 c -0.4101,-0.7104 -1.3185,-0.9538 -2.0289,-0.5437 -0.7104,0.4102 -0.9538,1.3186 -0.5436,2.029 l 22.4809,38.9376 c 0.4102,0.7103 1.3186,0.9537 2.0289,0.5436 0.7104,-0.4102 0.9538,-1.3185 0.5437,-2.0289 z m -11.1134,6.4164 c -0.4101,-0.7104 -1.3185,-0.9538 -2.0289,-0.5436 -0.7104,0.4101 -0.9538,1.3185 -0.5436,2.0289 l 22.4809,38.9376 c 0.4102,0.7104 1.3186,0.9538 2.0289,0.5436 0.7104,-0.4101 0.9538,-1.3185 0.5437,-2.0289 z"
       stroke="none"
       id="path21" />
  </g>
  <g
     text-rendering="geometricPrecision"
     id="g22">
    <path
       clip-path="url(#684083926625-clipPath1)"
       d="m 481.2995,91.9257 v 0 l 47.8669,-3e-4 c 0.8204,0 1.4853,0.665 1.4853,1.4853 0,0.8203 -0.6649,1.4853 -1.4853,1.4853 v 0 l -47.8668,3e-4 c -0.8203,0 -1.4853,-0.665 -1.4853,-1.4853 0,-0.8203 0.6649,-1.4853 1.4852,-1.4853 z"
       stroke="none"
       id="path22" />
  </g>
  <g
     text-rendering="geometricPrecision"
     id="g23">
    <path
       clip-path="url(#684083926625-clipPath1)"
       d="m 527.8802,92.6681 v 0 l 35.2895,-61.1243 c 0.4102,-0.7104 1.3186,-0.9538 2.029,-0.5436 0.7104,0.4101 0.9538,1.3185 0.5436,2.0289 v 0 l -35.2895,61.1242 c -0.4102,0.7104 -1.3186,0.9538 -2.029,0.5437 -0.7104,-0.4102 -0.9538,-1.3185 -0.5436,-2.0289 z"
       stroke="none"
       id="path23" />
  </g>
  <g
     text-rendering="geometricPrecision"
     id="g24">
    <path
       clip-path="url(#684083926625-clipPath1)"
       d="m 564.4561,30.8012 v 0 l 56.2872,-3e-4 c 0.8204,0 1.4853,0.6649 1.4853,1.4852 0,0.8203 -0.6649,1.4853 -1.4853,1.4853 v 0 l -56.2872,3e-4 c -0.8204,0 -1.4853,-0.665 -1.4853,-1.4852 0,-0.8203 0.6649,-1.4853 1.4853,-1.4853 z"
       stroke="none"
       id="path24" />
  </g>
  <g
     font-family="Arial"
     font-size="49px"
     text-rendering="geometricPrecision"
     transform="translate(86.9155,187.1588)"
     id="g25">
    <text
       clip-path="url(#684083926474-clipPath1)"
       stroke="none"
       x="0"
       xml:space="preserve"
       y="46"
       id="text24">O</text>
  </g>
  <g
     font-family="Arial"
     font-size="49px"
     text-rendering="geometricPrecision"
     transform="translate(86.9148,64.9107)"
     id="g26">
    <text
       clip-path="url(#684083926504-clipPath1)"
       stroke="none"
       x="0"
       xml:space="preserve"
       y="46"
       id="text25">O</text>
  </g>
  <g
     font-family="Arial"
     font-size="49px"
     text-rendering="geometricPrecision"
     transform="translate(7.7457,187.1592)"
     id="g27">
    <text
       clip-path="url(#684083926993-clipPath1)"
       stroke="none"
       x="0"
       xml:space="preserve"
       y="46"
       id="text26">H</text>
  </g>
  <g
     font-family="Arial"
     font-size="49px"
     text-rendering="geometricPrecision"
     transform="translate(439.8145,64.9111)"
     id="g28">
    <text
       clip-path="url(#68408392660-clipPath1)"
       stroke="none"
       x="0"
       xml:space="preserve"
       y="46"
       id="text27">O</text>
  </g>
  <g
     font-family="Arial"
     font-size="49px"
     text-rendering="geometricPrecision"
     transform="translate(439.8153,187.1592)"
     id="g29">
    <text
       clip-path="url(#684083926899-clipPath1)"
       stroke="none"
       x="0"
       xml:space="preserve"
       y="46"
       id="text28">O</text>
  </g>
  <g
     font-family="Arial"
     font-size="49px"
     text-rendering="geometricPrecision"
     transform="translate(623.6844,3.786)"
     id="g30">
    <text
       clip-path="url(#684083926172-clipPath1)"
       stroke="none"
       x="0"
       xml:space="preserve"
       y="46"
       id="text29">OH</text>
  </g>
  <g
     font-family="sans-serif"
     font-size="10px"
     font-style="italic"
     text-rendering="geometricPrecision"
     transform="matrix(4.9014,0,0,4.9014,-2263.9392,-944.61866)"
     id="g31">
    <text
       clip-path="url(#684083926898-clipPath1)"
       stroke="none"
       x="583.86871"
       xml:space="preserve"
       y="252.9493"
       id="text30">n</text>
  </g>
  <g
     id="g32"
     transform="translate(0,-12)">
    <line
       y2="639.84161"
       fill="none"
       x1="965.73401"
       clip-path="url(#13085494739-clipPath1)"
       x2="965.73401"
       y1="108.6739"
       id="line57"
       transform="matrix(0.42917937,0,0,0.50337035,-355.44071,-29.170808)"
       style="font-weight:bold;font-size:49px;font-family:Arial;stroke-width:5.6109;text-rendering:geometricPrecision" />
    <line
       y2="108.6739"
       fill="none"
       x1="965.73401"
       clip-path="url(#13085494739-clipPath1)"
       x2="979.95428"
       y1="108.6739"
       id="line59"
       transform="matrix(0.42917937,0,0,0.50337035,-355.44071,-29.170808)"
       style="font-weight:bold;font-size:49px;font-family:Arial;stroke-width:5.6109;text-rendering:geometricPrecision" />
    <line
       y2="639.84161"
       fill="none"
       x1="965.73401"
       clip-path="url(#13085494739-clipPath1)"
       x2="979.95428"
       y1="639.84161"
       id="line61"
       transform="matrix(0.42917937,0,0,0.50337035,-355.44071,-29.170808)"
       style="font-weight:bold;font-size:49px;font-family:Arial;stroke-width:5.6109;text-rendering:geometricPrecision" />
  </g>
  <g
     id="g33"
     transform="translate(0,-12)">
    <line
       y2="108.6739"
       fill="none"
       x1="1508.1237"
       clip-path="url(#13085494739-clipPath1)"
       x2="1508.1237"
       y1="639.84161"
       id="line63"
       transform="matrix(0.42917937,0,0,0.50337035,-57.44071,-29.170808)"
       style="font-weight:bold;font-size:49px;font-family:Arial;stroke-width:5.6109;text-rendering:geometricPrecision" />
    <line
       y2="639.84161"
       fill="none"
       x1="1508.1237"
       clip-path="url(#13085494739-clipPath1)"
       x2="1493.9032"
       y1="639.84161"
       id="line65"
       transform="matrix(0.42917937,0,0,0.50337035,-57.44071,-29.170808)"
       style="font-weight:bold;font-size:49px;font-family:Arial;stroke-width:5.6109;text-rendering:geometricPrecision" />
    <line
       y2="108.6739"
       fill="none"
       x1="1508.1237"
       clip-path="url(#13085494739-clipPath1)"
       x2="1493.9032"
       y1="108.6739"
       id="line67"
       transform="matrix(0.42917937,0,0,0.50337035,-57.44071,-29.170808)"
       style="font-weight:bold;font-size:49px;font-family:Arial;stroke-width:5.6109;text-rendering:geometricPrecision" />
  </g>
</svg>
